<svg xmlns="http://www.w3.org/2000/svg" version="1.1" xmlns:xlink="http://www.w3.org/1999/xlink" xmlns:svgjs="http://svgjs.dev/svgjs" width="100" height="100" viewBox="0 0 1500 1500"><rect width="1500" height="1500" fill="#ffffff"></rect><g transform="matrix(0.6666666666666666,0,0,0.6666666666666666,249.39393939393943,515.2761495555413)"><svg viewBox="0 0 396 186" data-background-color="#2c4040" preserveAspectRatio="xMidYMid meet" height="704" width="1500" xmlns="http://www.w3.org/2000/svg" xmlns:xlink="http://www.w3.org/1999/xlink"><g id="tight-bounds" transform="matrix(1,0,0,1,0.2400000000000091,0.02266232102839183)"><svg viewBox="0 0 395.52 185.95467535794322" height="185.95467535794322" width="395.52"><g><svg viewBox="0 0 661.0633203555556 310.8005034581345" height="185.95467535794322" width="395.52"><g transform="matrix(1,0,0,1,305.8277648,31.80025172906724)"><svg viewBox="0 0 355.23555555555555 247.2" height="247.2" width="355.23555555555555"><g id="textblocktransform"><svg viewBox="0 0 355.23555555555555 247.2" height="247.2" width="355.23555555555555" id="textblock"><g><svg viewBox="0 0 355.23555555555555 247.2" height="247.2" width="355.23555555555555"><g transform="matrix(1,0,0,1,0,0)"><svg width="355.23555555555555" viewBox="0.6499999999999897 -37.5 116.75000000000004 78" height="247.2" data-palette-color="#f2e9e4"><svg></svg><svg></svg><g class="wordmark-text-0" data-fill-palette-color="primary" id="text-0"><path d="M0.65-37.5h45.05v15.2h-12.05c0 0-0.007 0.007-0.02 0.02-0.02 0.02-0.037 0.03-0.05 0.03-0.02 0-0.03 0.017-0.03 0.05v0c0 1.467 0 2.94 0 4.42 0 1.487 0 2.97 0 4.45 0 1.487 0 2.97 0 4.45 0 1.487 0 2.973 0 4.46 0 1.48 0 2.953 0 4.42v0h-20.75c0-2.467 0-4.933 0-7.4 0-2.467 0-4.933 0-7.4 0-2.467 0-4.933 0-7.4v0c0 0 0-0.01 0-0.03 0-0.013-0.007-0.03-0.02-0.05-0.02-0.013-0.037-0.02-0.05-0.02-0.02 0-0.03 0-0.03 0v0h-12.05zM76.9-16.8v-20.7h19.25c0 1.233 0 2.477 0 3.73 0 1.247 0 2.493 0 3.74 0 1.253 0 2.503 0 3.75 0 1.253 0 2.503 0 3.75 0 1.253 0 2.513 0 3.78v0c0 3.133 0 6.257 0 9.37 0 3.12 0 6.247 0 9.38v0h-23.15l-6.3-18c0 0 0-0.01 0-0.03 0-0.013-0.007-0.02-0.02-0.02-0.02 0-0.037 0-0.05 0-0.02 0-0.03 0.007-0.03 0.02 0 0.02 0 0.03 0 0.03v0c0 2.933 0 5.933 0 9 0 3.067 0 6.067 0 9v0h-19.25c0-2.5 0-5 0-7.5 0-2.5 0-5 0-7.5 0-2.5 0-5 0-7.5 0-2.5 0-5 0-7.5 0-2.5 0-5 0-7.5v0h22.4l7.05 20.75v0c0 0 0.01 0 0.03 0 0.013 0 0.03 0 0.05 0 0.013 0 0.02-0.01 0.02-0.03 0-0.013 0-0.02 0-0.02z" fill="#000000" fill-rule="nonzero" stroke="none" stroke-width="1" stroke-linecap="butt" stroke-linejoin="miter" stroke-miterlimit="10" stroke-dasharray="" stroke-dashoffset="0" font-family="none" font-weight="none" font-size="none" text-anchor="none" style="mix-blend-mode: normal" data-fill-palette-color="primary" opacity="1"></path><path transform="translate(0,40.5)" d="M43.05-37.5v14.7h-21.25v0 0c0 0 0 0.007 0 0.02 0 0.02 0 0.03 0 0.03v0 2.9c0 0.033 0 0.05 0 0.05v0 0h20.5v11.9h-20.5v0c0 0 0 0.017 0 0.05v0c0 1.133 0 2.073 0 2.82 0 0.753 0 1.497 0 2.23 0 0.733 0 1.667 0 2.8v0h-20.8c0-2.367 0-4.733 0-7.1 0-2.367 0-4.727 0-7.08 0-2.347 0-4.703 0-7.07 0-2.367 0-4.733 0-7.1v0c0-1.533 0-3.06 0-4.58 0-1.513 0-3.037 0-4.57v0zM65.6 0h-20.75c0-2.4 0-4.8 0-7.2 0-2.4 0-4.8 0-7.2 0-2.4 0-4.8 0-7.2 0-2.4 0-4.8 0-7.2v0c0-1.467 0-2.927 0-4.38 0-1.447 0-2.887 0-4.32v0h20.75c0 3.233 0 6.457 0 9.67 0 3.22 0 6.447 0 9.68v0c0 2 0 4.007 0 6.02 0 2.02 0 4.037 0 6.05 0 2.02 0 4.047 0 6.08zM92.8-18.75v0c0 0 0 0.017 0 0.05 0 0.033-0.01 0.057-0.03 0.07-0.013 0.02-0.02 0.047-0.02 0.08v0l-4.2 18.55h-21.75c0.867-2.133 1.69-4.26 2.47-6.38 0.787-2.113 1.573-4.237 2.36-6.37 0.78-2.133 1.603-4.25 2.47-6.35v0c0 0 0-0.01 0-0.03 0-0.013 0-0.02 0-0.02 0 0 0-0.01 0-0.03 0-0.013 0-0.02 0-0.02v0c-1.3-3.067-2.517-6.127-3.65-9.18-1.133-3.047-2.35-6.087-3.65-9.12v0h22.5l3.45 18.5c0 0.033 0.007 0.067 0.02 0.1 0.02 0.033 0.03 0.083 0.03 0.15zM91.2-16.1v0c0-0.033 0.007-0.06 0.02-0.08 0.02-0.013 0.03-0.037 0.03-0.07 0-0.033 0-0.05 0-0.05v0c0.5-2.367 0.983-4.727 1.45-7.08 0.467-2.347 0.943-4.703 1.43-7.07 0.48-2.367 0.953-4.717 1.42-7.05v0h21.7c-1.233 3.167-2.4 6.35-3.5 9.55-1.1 3.2-2.283 6.383-3.55 9.55v0c0 0 0 0.007 0 0.02 0 0.02 0 0.03 0 0.03 0 0 0 0.017 0 0.05v0c0.5 1.233 0.99 2.457 1.47 3.67 0.487 1.22 0.963 2.437 1.43 3.65 0.467 1.22 0.933 2.437 1.4 3.65 0.467 1.22 0.94 2.437 1.42 3.65 0.487 1.22 0.98 2.447 1.48 3.68v0h-22.6l-3.55-15.9c0-0.033 0-0.06 0-0.08 0-0.013-0.01-0.037-0.03-0.07-0.013-0.033-0.02-0.05-0.02-0.05z" fill="#000000" fill-rule="nonzero" stroke="none" stroke-width="1" stroke-linecap="butt" stroke-linejoin="miter" stroke-miterlimit="10" stroke-dasharray="" stroke-dashoffset="0" font-family="none" font-weight="none" font-size="none" text-anchor="none" style="mix-blend-mode: normal" data-fill-palette-color="primary" opacity="1"></path></g></svg></g></svg></g></svg></g></svg></g><g><svg viewBox="0 0 278.81017813333335 310.8005034581345" height="310.8005034581345" width="278.81017813333335"><g><svg xmlns="http://www.w3.org/2000/svg" xmlns:xlink="http://www.w3.org/1999/xlink" version="1.1" x="0" y="0" viewBox="7.87 3.285 84.261 93.929" enable-background="new 0 0 100 100" xml:space="preserve" height="310.8005034581345" width="278.81017813333335" class="icon-icon-0" data-fill-palette-color="accent" id="icon-0"><g fill="#f2505d" data-fill-palette-color="accent"><path fill="#000000" d="M66.018 82.742L66.192 82.642A0.8 0.8 0 0 1 66.018 82.522z" data-fill-palette-color="accent"></path><path d="M52.426 46.137L55.604 44.241A0.98 0.98 0 0 0 56.032 43.486V39.34C56.032 39.066 55.839 38.957 55.604 39.097L52.426 40.994A0.98 0.98 0 0 0 51.998 41.749V45.895C51.998 46.168 52.191 46.278 52.426 46.137" fill="#000000" data-fill-palette-color="accent"></path><path d="M52.426 55.803L55.604 53.906A0.98 0.98 0 0 0 56.032 53.151V49.005C56.032 48.732 55.839 48.622 55.604 48.763L52.426 50.661A0.98 0.98 0 0 0 51.998 51.414V55.561C51.998 55.834 52.191 55.943 52.426 55.803" fill="#000000" data-fill-palette-color="accent"></path><path d="M52.426 65.469L55.604 63.571A0.98 0.98 0 0 0 56.032 62.817V58.672C56.032 58.397 55.839 58.287 55.604 58.428L52.426 60.326A0.98 0.98 0 0 0 51.998 61.079V65.225C51.998 65.499 52.191 65.609 52.426 65.469" fill="#000000" data-fill-palette-color="accent"></path><path d="M52.426 75.135L55.604 73.237A0.98 0.98 0 0 0 56.032 72.484V68.337C56.032 68.063 55.839 67.954 55.604 68.095L52.426 69.992A0.98 0.98 0 0 0 51.998 70.746V74.892C51.998 75.165 52.191 75.275 52.426 75.135" fill="#000000" data-fill-palette-color="accent"></path><path d="M26.135 72.448L29.31 70.552A0.98 0.98 0 0 0 29.738 69.797V65.651C29.738 65.377 29.545 65.267 29.31 65.408L26.135 67.305A0.98 0.98 0 0 0 25.707 68.059V72.205C25.708 72.481 25.9 72.59 26.135 72.448" fill="#000000" data-fill-palette-color="accent"></path><path d="M55.604 82.902A0.98 0.98 0 0 0 56.032 82.147V78.001C56.032 77.727 55.839 77.618 55.604 77.759L52.426 79.655A0.98 0.98 0 0 0 51.998 80.41V84.556C51.998 84.831 52.191 84.939 52.426 84.798z" fill="#000000" data-fill-palette-color="accent"></path><path d="M81.783 53.818L78.607 55.715A0.98 0.98 0 0 0 78.179 56.471V60.617C78.179 60.89 78.37 61 78.607 60.858L81.783 58.961A0.98 0.98 0 0 0 82.211 58.207V54.061C82.211 53.787 82.018 53.678 81.783 53.818" fill="#000000" data-fill-palette-color="accent"></path><path d="M81.783 63.484L78.607 65.382A0.97 0.97 0 0 0 78.179 66.136V70.282C78.179 70.555 78.37 70.664 78.607 70.524L81.783 68.627C82.017 68.485 82.211 68.147 82.211 67.872V63.726C82.211 63.453 82.018 63.343 81.783 63.484" fill="#000000" data-fill-palette-color="accent"></path><path d="M87.037 22.986L55.094 4.543C53.688 3.732 51.881 3.285 50 3.285 48.121 3.285 46.312 3.732 44.907 4.543L12.964 22.986C10.06 24.662 7.87 28.454 7.87 31.808V68.693C7.87 72.045 10.06 75.838 12.964 77.513L44.907 95.956C46.312 96.768 48.12 97.214 50 97.214 51.881 97.214 53.688 96.768 55.094 95.956L87.037 77.513C89.939 75.837 92.131 72.044 92.131 68.693V31.808C92.131 28.454 89.939 24.662 87.037 22.986M33.953 82.725L15.955 72.333C14.893 71.721 13.853 69.918 13.853 68.693V59.3L23.855 53.525A1 1 0 0 1 23.949 53.525L33.953 59.3zM60.035 86.197L52.437 90.583 52.101 90.777C51.607 91.061 50.822 91.232 49.999 91.232 49.177 91.232 48.392 91.061 47.897 90.777L47.562 90.583 39.934 86.18V35.184A1 1 0 0 1 39.981 35.102L47.578 30.716 48.43 28.564 49.389 26.135A2.097 2.097 0 1 1 50.608 26.135L51.569 28.564 52.43 30.74 59.987 35.103A0.5 0.5 0 0 1 60.034 35.185zM86.148 68.693C86.148 69.918 85.107 71.72 84.046 72.333L66.191 82.643 66.017 82.743V49.487L76.021 43.712A0.5 0.5 0 0 1 76.115 43.712L86.148 49.505zM86.148 42.598L79.002 38.472C77.273 37.475 74.861 37.475 73.133 38.472L66.018 42.58V35.065C66.018 33.07 64.811 30.981 63.082 29.982L57.619 26.827A8.1 8.1 0 0 0 58.08 24.129C58.08 19.673 54.455 16.049 50 16.049S41.921 19.673 41.921 24.129C41.921 25.056 42.077 25.959 42.378 26.812L36.888 29.981C35.16 30.98 33.953 33.069 33.953 35.064V52.393L26.837 48.285C25.109 47.287 22.696 47.287 20.968 48.285L13.852 52.393V31.808C13.852 30.582 14.893 28.779 15.954 28.166L47.898 9.724C48.393 9.438 49.178 9.268 50 9.268S51.607 9.438 52.102 9.724L84.047 28.167C85.108 28.78 86.149 30.583 86.149 31.809V42.598z" fill="#000000" data-fill-palette-color="accent"></path></g></svg></g></svg></g></svg></g><defs></defs></svg><rect width="395.52" height="185.95467535794322" fill="none" stroke="none" visibility="hidden"></rect></g></svg></g></svg>